<svg viewBox="0 0 1000 1000" xmlns="http://www.w3.org/2000/svg"><path d="m0 0h1000v1000h-1000z" fill="#26bde2"/><g fill="#fff"><path d="m151.31 288.09c36 0 49.95-19.64 49.95-50.87v-29.74c0-33-13.08-49.66-37.48-49.66-14.27 0-22.89 6.56-27.95 16.37h-.29v-43.42c0-12.21 3.87-20.82 16.06-20.82s15.76 7.14 15.76 19.63v13.42h30.93v-10.75c0-29.74-9.82-50.55-47.29-50.55-35.68 0-49.07 22.89-49.07 54.41v98.14c0 31.23 13.68 53.84 49.38 53.84m-15.77-84.77c.59-11.29 5.35-18.43 16.06-18.43 11.59 0 16.05 7.14 16.05 20.23v35.09c0 12.78-4.74 20.22-16.34 20.22-11.32 0-15.77-7.73-15.77-20.22z"/><path d="m306.49 165.73c14.59 0 19.4-8.67 19.4-20.38v-14.11h-12.54v15.08c0 4.82-1.67 8-6.63 8s-7-3.49-7-8.44v-43.9c0-4.94 2.07-8.44 7-8.44s6.63 2.89 6.63 8v10.73h12.54v-9.65c0-12.05-4.21-20.5-19.4-20.5-14.49-.12-20.49 9.2-20.49 21.99v39.55c0 12.67 6 22.07 20.5 22.07"/><path d="m364.73 153.56h-16.39v-70.56h-13.77v81.78h30.16z"/><path d="m404.99 153.56h-19.05v-24.84h13.62v-11.11h-13.62v-23.39h19.05v-11.22h-32.79v81.78h32.79z"/><path d="m426.82 149.82h14.58l2.54 15h14.06l-15.53-81.82h-15.65l-15.44 81.77h13zm7.23-43.82h.12l5.43 32.79h-11z"/><path d="m476.49 113.4 16.15 51.38h12.05v-81.78h-11.45v46.92l-14.82-46.92h-13.51v81.78h11.58z"/><path d="m555.76 164.77 7.72-50.53h.11l8.08 50.53h13.03l10.6-81.76h-11.56l-6.28 51.85h-.12l-7.59-51.85h-11.21l-6.87 51.85h-.12l-6.4-51.85h-13.27l10.99 81.76z"/><path d="m610.91 149.82h14.6l2.52 15h14.11l-15.56-81.82h-15.67l-15.41 81.77h13zm7.25-43.82h.11l5.43 32.79h-11z"/><path d="m651.75 164.77h13.87v-70.55h11.33v-11.22h-36.53v11.22h11.33z"/><path d="m716.22 153.56h-19.05v-24.84h13.62v-11.11h-13.62v-23.39h19.05v-11.22h-32.79v81.78h32.79z"/><path d="m737.41 127.25 12.89 37.53h14.48l-13.15-37.16c7.84-1.79 11-7 11-15.79v-10.49c0-11.46-5.06-18.34-18.93-18.34h-20v81.78h13.74zm0-33h4.59c4.68 0 6.74 2.17 6.74 6.62v12.03c0 4.35-2.06 6.77-6.74 6.77h-4.59z"/><path d="m299.82 270.38h14.59l2.53 14.95h14.06l-15.57-81.76h-15.61l-15.43 81.76h13zm7.23-43.78h.14l5.41 32.81h-11z"/><path d="m336.69 203.57v81.78h11.57v-51.38l16.15 51.38h12.04v-81.78h-11.43v46.92l-14.83-46.92z"/><path d="m386.52 285.34h21.2c14.7 0 19.89-9.41 19.89-21.95v-37.87c0-12.65-5.19-21.94-19.89-21.94h-21.2zm13.73-70.56h5.75c5.68 0 7.83 3.38 7.83 8.21v42.82c0 4.93-2.15 8.31-7.83 8.31h-5.78z"/><path d="m458.15 256.76v11c0 10.72 5.44 18.58 19.41 18.58s20-8 20-19.19v-4c0-9-3.6-13.63-11.07-21.23l-8.81-8.68c-4-3.85-6.51-6.52-6.51-11.08v-1.71c0-4.58 2.65-6.74 6.51-6.74 4.34 0 6.51 2.29 6.51 7v7.13h12.54v-6.65c0-11.82-5.42-18.57-19.17-18.57-13.38 0-19.28 7.84-19.28 18v2.76c0 9.41 3.62 14.12 11.45 21.83l8.07 8.09c4.22 4 6.14 6.87 6.14 11.56v3.14c0 4.34-1.92 7.24-6.26 7.24-4.69 0-6.74-2.65-6.74-7.24v-11.24z"/><path d="m514.52 285.34 2.41-15h14.59l2.53 15h14.1l-15.56-81.76h-15.66l-15.42 81.76zm9.65-58.72h.12l5.42 32.79h-11z"/><path d="m583.24 250.49-14.83-46.91h-13.51v81.77h11.59v-51.38l16.14 51.38h12.05v-81.77h-11.44z"/><path d="m605.85 203.57h13.75v81.77h-13.75z"/><path d="m651.02 285.35v-70.56h11.34v-11.2h-36.52v11.2h11.32v70.56z"/><path d="m690.31 203.58h-15.65l-15.44 81.76h13l2.43-14.95h14.57l2.53 14.95h14.1zm-13.86 55.83 5.44-32.79h.11l5.43 32.79z"/><path d="m738.01 203.58h-36.52v11.21h11.34v70.56h13.87v-70.56h11.31z"/><path d="m745.52 203.57h13.74v81.77h-13.74z"/><path d="m788.91 286.32c14.59 0 20.84-9.41 20.84-22.08v-39.56c0-12.79-6.25-22.07-20.84-22.07s-20.75 9.28-20.75 22.07v39.56c0 12.67 6.29 22.08 20.75 22.08m-7-63.81c0-4.94 2.16-8.44 7-8.44s7.11 3.5 7.11 8.44v43.9c0 4.94-2.17 8.44-7.11 8.44s-7-3.5-7-8.44z"/><path d="m858.47 285.35v-81.76h-11.45v46.9l-14.83-46.9h-13.51v81.76h11.58v-51.39l16.15 51.39z"/><path d="m684.65 404.36a4.38 4.38 0 0 0 -3.28-1.43h-362.8a4.09 4.09 0 0 0 -4.17 4.86l61 368.63a4.26 4.26 0 0 0 4.18 3.55h74.81l5.12 60h-31.48l73.25 73.24 73.42-73.41h-31.47l5.06-59.8h76.13a4.18 4.18 0 0 0 4.16-3.62l57-368.56a4.36 4.36 0 0 0 -.93-3.46zm-140.22 295.11a58.2 58.2 0 0 1 -43.29 15.1 58.23 58.23 0 0 1 -43.34-15.1c-27.18-27.15-17.48-60.93-8-78.39 5.84-10.93 47.6-73.64 51.2-79v-.42l.16.2.14-.2v.42c3.5 5.34 45.33 68 51.17 79 9.45 17.46 19.12 51.24-8.04 78.39zm115.09-217.55c-9.83-4.33-22.3-2.77-34.26 2.07-45 18.25-75.66 24.81-123 10-29.82-9.34-57.72-28.88-90.69-17-21.89 7.87-42.28 15.38-67 15.19l-14.29-73.26h339.51z"/></g></svg>