<svg viewBox="0 0 1000 1000" xmlns="http://www.w3.org/2000/svg"><path d="m0-.02h1000v1000.03h-1000z" fill="#fcc30b"/><g fill="#fff"><path d="m102.57 111.45h52.35l-45.22 173.97h33.62l44.31-170.4v-31.23h-85.06z"/><path d="m500 484.49a146.58 146.58 0 1 0 146.52 146.57 146.56 146.56 0 0 0 -146.52-146.57m-10.85 57.9c0-4.87 4.89-10.25 10.91-10.25s10.85 5.38 10.85 10.25v50.33c0 4.85-4.85 10.17-10.85 10.17s-10.91-5.32-10.91-10.17zm10.85 163.77a76.24 76.24 0 0 1 -22.65-149v28.39a49.89 49.89 0 1 0 45.18-.07v-28.39a76.24 76.24 0 0 1 -22.53 149.07"/><path d="m331.73 629.78c0-6.65-5.89-12-11.26-12h-64.19c-5.41 0-11.35 5.38-11.35 12s5.94 12.07 11.35 12.07h64.19c5.37 0 11.26-5.41 11.26-12.07"/><path d="m755.07 629.78c0-6.65-5.89-12-11.26-12h-64.18c-5.41 0-11.35 5.38-11.35 12s5.94 12.07 11.35 12.07h64.18c5.37 0 11.26-5.41 11.26-12.07"/><path d="m500 461.53c6.63 0 12-5.89 12-11.26v-64.19c0-5.41-5.39-11.35-12-11.35s-12.09 5.94-12.09 11.35v64.19c0 5.37 5.43 11.26 12.09 11.26"/><path d="m500 884.86c6.63 0 12-5.89 12-11.26v-64.18c0-5.4-5.39-11.35-12-11.35s-12.09 5.95-12.09 11.35v64.18c0 5.37 5.43 11.26 12.09 11.26"/><path d="m354 546.19c3.31-5.77.88-13.36-3.8-16l-55.7-31.88c-4.7-2.69-12.52-1-15.83 4.8s-.83 13.43 3.86 16.12l55.71 31.88c4.66 2.67 12.46.9 15.76-4.89"/><path d="m721.39 756.47c3.29-5.75.86-13.36-3.8-16l-55.7-31.88c-4.7-2.68-12.53-1-15.83 4.81s-.84 13.43 3.85 16.11l55.71 31.88c4.66 2.67 12.46.9 15.77-4.89"/><path d="m583.61 483.77c5.76 3.29 13.35.86 16-3.8l31.87-55.71c2.7-4.7 1-12.53-4.79-15.83s-13.44-.84-16.12 3.86l-31.85 55.71c-2.67 4.67-.9 12.47 4.89 15.78"/><path d="m373.33 851.19c5.76 3.29 13.35.86 16-3.81l31.87-55.7c2.69-4.69 1-12.53-4.8-15.83s-13.4-.85-16.08 3.86l-31.88 55.7c-2.67 4.66-.9 12.47 4.89 15.78"/><path d="m416.14 483.91c5.75-3.31 7.49-11.1 4.81-15.76l-32-55.64c-2.7-4.69-10.32-7.15-16.08-3.84s-7.51 11.17-4.8 15.86l32 55.63c2.69 4.66 10.3 7.07 16.09 3.75"/><path d="m627.17 850.9c5.76-3.31 7.49-11.1 4.82-15.75l-32-55.64c-2.7-4.7-10.32-7.16-16.09-3.85s-7.51 11.17-4.79 15.87l32 55.63c2.68 4.66 10.3 7.06 16.08 3.74"/><path d="m645.89 545.93c3.31 5.76 11.09 7.49 15.75 4.82l55.63-32c4.7-2.7 7.18-10.33 3.86-16.09s-11.16-7.5-15.86-4.8l-55.63 32c-4.67 2.68-7.07 10.31-3.75 16.08"/><path d="m278.9 757c3.31 5.76 11.09 7.49 15.76 4.81l55.63-32c4.69-2.7 7.17-10.33 3.84-16.09s-11.16-7.5-15.85-4.81l-55.63 32c-4.67 2.67-7.07 10.31-3.75 16.08"/><path d="m283.48 165.4 15.43-81.73h15.68l15.55 81.73h-14.14l-2.53-14.94h-14.56l-2.41 14.94zm17.24-25.92h11l-5.42-32.79h-.12z"/><path d="m335.2 83.67h32.19v11.21h-18.45v23.39h13.75v11.09h-13.75v36h-13.74z"/><path d="m372.81 83.67h32.19v11.21h-18.45v23.39h13.75v11.09h-13.75v36h-13.74z"/><path d="m409.22 144.31v-39.55c0-12.76 6.27-22.06 20.78-22.06s20.86 9.28 20.86 22.06v39.55c0 12.66-6.27 22.06-20.86 22.06s-20.78-9.37-20.78-22.06zm27.85 2.17v-43.89c0-4.94-2.17-8.44-7.12-8.44s-7 3.5-7 8.44v43.89c0 4.94 2.17 8.44 7 8.44s7.12-3.5 7.12-8.44z"/><path d="m471.78 127.91v37.49h-13.78v-81.73h20c13.92 0 19 6.87 19 18.33v10.49c0 8.8-3.13 14-11 15.79l13.14 37.13h-14.46zm0-33v25.43h4.58c4.71 0 6.76-2.41 6.76-6.75v-12c0-4.46-2.05-6.63-6.76-6.63z"/><path d="m545 105.61v37.85c0 12.54-5.18 21.94-19.89 21.94h-21.26v-81.73h21.22c14.71 0 19.93 9.33 19.93 21.94zm-21.58 48.58c5.67 0 7.84-3.37 7.84-8.32v-42.8c0-4.82-2.17-8.19-7.84-8.19h-5.79v59.31z"/><path d="m548.21 165.4 15.43-81.73h15.68l15.55 81.73h-14.11l-2.53-14.94h-14.59l-2.41 14.94zm17.24-25.92h11l-5.45-32.79h-.12z"/><path d="m599.93 83.67h19.89c13.75 0 18.33 6.38 18.33 18v8.33c0 6.87-2.54 11.21-8.2 13 6.87 1.56 10.25 6.15 10.25 13.62v10.85c0 11.57-5.19 18-18.93 18h-21.34zm13.74 34.48h4.83c4.46 0 6.51-2.3 6.51-6.64v-10c0-4.46-2-6.63-6.63-6.63h-4.71zm0 10.48v25.56h6c4.58 0 6.75-2.29 6.75-6.63v-12.3c0-4.34-2.05-6.63-6.87-6.63z"/><path d="m646.46 83.67h13.75v70.52h16.39v11.21h-30.14z"/><path d="m682.26 83.67h32.8v11.21h-19.06v23.39h13.62v11.09h-13.62v24.83h19v11.21h-32.8z"/><path d="m731.69 165.4 15.43-81.73h15.67l15.56 81.73h-14.11l-2.53-14.94h-14.59l-2.41 14.94zm17.24-25.92h11l-5.42-32.79h-.13z"/><path d="m795 114.05v51.35h-11.59v-81.73h13.5l14.83 46.89v-46.89h11.45v81.73h-12.05z"/><path d="m871.53 105.61v37.85c0 12.54-5.18 21.94-19.89 21.94h-21.22v-81.73h21.22c14.71 0 19.89 9.33 19.89 21.94zm-21.53 48.58c5.67 0 7.84-3.37 7.84-8.32v-42.8c0-4.82-2.17-8.19-7.84-8.19h-5.78v59.31z"/><path d="m285.54 264.33v-39.33c0-12.71 6-22 20.39-22 15.11 0 19.31 8.4 19.31 20.39v9.61h-12.48v-10.65c0-5-1.68-7.91-6.59-7.91s-7 3.47-7 8.39v43.66c0 4.92 2 8.39 7 8.39s6.59-3.12 6.59-7.91v-14.97h12.48v14c0 11.63-4.8 20.27-19.31 20.27s-20.39-9.35-20.39-21.94z"/><path d="m333.87 204h13.67v70.16h16.31v11.16h-30z"/><path d="m371.29 204h32.62v11.16h-18.91v23.26h13.55v11h-13.55v24.7h19v11.16h-32.71z"/><path d="m410.27 285.32 15.35-81.32h15.59l15.47 81.32h-14l-2.52-14.87h-14.54l-2.4 14.87zm17.15-25.79h10.91l-5.4-32.62h-.12z"/><path d="m475 234.23v51.09h-11.49v-81.32h13.49l14.75 46.66v-46.66h11.39v81.32h-12z"/><path d="m539.67 204h32.62v11.16h-18.95v23.26h13.55v11h-13.55v24.7h18.95v11.16h-32.62z"/><path d="m592 234.23v51.09h-11.55v-81.32h13.43l14.75 46.66v-46.66h11.37v81.32h-12z"/><path d="m628.9 204h32.62v11.16h-18.95v23.26h13.55v11h-13.55v24.7h18.95v11.16h-32.62z"/><path d="m683.47 248v37.3h-13.68v-81.3h19.91c13.8 0 18.83 6.84 18.83 18.23v10.44c0 8.75-3.12 13.91-10.91 15.71l13.07 36.94h-14.39zm0-32.86v25.3h4.53c4.68 0 6.72-2.4 6.72-6.71v-12c0-4.44-2-6.59-6.72-6.59z"/><path d="m737.79 241.9h19.43v43.42h-9.83v-8.88c-1.8 6.12-5.64 9.84-13.07 9.84-11.76 0-17.15-9.36-17.15-21.95v-39.33c0-12.71 6.11-22 20.5-22 15.12 0 19.55 8.4 19.55 20.39v7.2h-12.47v-8.28c0-5-1.92-7.91-6.83-7.91s-7.08 3.47-7.08 8.39v43.66c0 4.92 2 8.39 6.71 8.39 4.44 0 6.72-2.52 6.72-7.79v-14.35h-6.48z"/><path d="m792.6 254.37v30.95h-13.67v-30.95l-15.23-50.37h14.3l8.28 30.83h.12l8.24-30.83h13.07z"/></g></svg>