<svg viewBox="0 0 1000 1000" xmlns="http://www.w3.org/2000/svg"><path d="m.3.15h999.81v999.85h-999.81z" fill="#00689d"/><g fill="#fff"><path d="m77.22 120.59v35.38h.31l23.78-24.68h.3v154.31h33.9v-201.59h-27.05z"/><path d="m254.15 237.15v-29.74c0-33-13.08-49.66-37.46-49.66-14.28 0-22.9 6.54-27.95 16.36h-.29v-43.41c0-12.2 3.85-20.82 16.05-20.82s15.76 7.14 15.76 19.62v13.4h30.92v-10.72c0-29.73-9.81-50.54-47.28-50.54-35.68 0-49.06 22.9-49.06 54.42v98.11c0 31.22 13.69 53.82 49.36 53.82 36 0 50-19.62 50-50.84m-33.6 3c0 12.78-4.76 20.21-16.35 20.21-11.3 0-15.75-7.72-15.75-20.21v-36.9c.58-11.3 5.34-18.44 16.05-18.44 11.58 0 16.05 7.14 16.05 20.23z"/><path d="m646.14 491s-8.41 11.17-6 22.06 14.88 17.36 14.88 17.36 8.41-11.17 6-22.05-14.88-17.37-14.88-17.37"/><path d="m632.43 554.84s8.41-11.18 6-22.06-14.87-17.36-14.87-17.36-8.42 11.17-6 22.06 14.88 17.36 14.88 17.36"/><path d="m667 542.88s8.88 9 19 8.06 17.61-11.31 17.61-11.31-8.87-9-19-8.07-17.61 11.32-17.61 11.32"/><path d="m681.56 495c-8.23 8.35-7.07 23.13-7.07 23.13s14.51 1.26 22.76-7.08 7.07-23.13 7.07-23.13-14.52-1.26-22.76 7.08"/><path d="m663.4 576.09c10.08 1.2 19.56-7.46 19.56-7.46s-6.87-10.63-16.96-11.78-19.57 7.47-19.57 7.47 6.87 10.58 16.95 11.77"/><path d="m672.4 751.23h-75.35a10.66 10.66 0 1 0 0 21.32h75.35a10.66 10.66 0 0 0 0-21.32"/><path d="m672.4 868.74h-75.35a10.66 10.66 0 1 0 0 21.32h75.35a10.66 10.66 0 0 0 0-21.32"/><path d="m333.51 725.35a49.66 49.66 0 0 0 -5.23-1.34s1.93.6 5.23 1.34"/><path d="m669.63 780h-69.83a6.07 6.07 0 0 0 -6.07 6.06v21.15l-45.58 5-66.59-1.52v-40.69a183 183 0 0 0 26.49-5.38c64.11-18.08 78.09-71.08 76.69-107.75-1.39-37.35 10.56-51.85 27.73-58.3a77.47 77.47 0 0 1 14.23-3.77c.19 9.17 2 19.84 6.15 32.54 1.53-.08 3-.21 4.55-.37-4.33-13-6.18-23.69-6.28-32.81a79.89 79.89 0 0 1 15.2-.46 96.54 96.54 0 0 1 -14.47-10.3c2.88-17.68 13.42-28.54 24.27-39.65 6-6.11 12.13-12.42 17-19.94l-3.78-2.44c-4.6 7.14-10.63 13.29-16.44 19.24-10.58 10.83-21.27 21.89-24.89 39.45a145.4 145.4 0 0 1 -11.01-11.06c-15.81-17.72-36.16-4.71-65.17 22.31s-65.54 27.93-101.2-8.55c-47-48.16-88.08-47.88-116.22-45.15 19.25 8.2 26 26.19 35.73 71.91 10.21 48 36 69.68 71.19 72.67-19.59 6.93-20.56 18-46.81 36.12-20.51 14.14-49.35 9.67-61 7 21.46 6.7 46.89 29.21 69.64 37a168.17 168.17 0 0 0 41.51 8.51v38.94l-119.3-2.72v27.16l222.79-5.1 45.58 5v21.13a6.09 6.09 0 0 0 6.07 6.08h69.83a6.1 6.1 0 0 0 6.08-6.08v-69.17a6.08 6.08 0 0 0 -6.09-6.06zm-214-8.52c5 .08 9.95-.07 14.94-.41v39.37l-14.94-.34z"/><path d="m318.84 829.8c0 5.73-4 10.37-8.92 10.37h-5.37c-4.92 0-8.93-4.64-8.93-10.37v-18.8c0-5.73 4-10.37 8.93-10.37h5.37c4.92 0 8.92 4.64 8.92 10.37z"/><path d="m319.38 83.89h20.37c13.86 0 18.93 6.87 18.93 18.32v17.23c0 11.45-5.07 18.44-18.93 18.44h-6.63v27.73h-13.74zm13.74 11.21v32.18h5.07c4.7 0 6.75-2.29 6.75-6.75v-18.8c0-4.46-2.05-6.63-6.75-6.63z"/><path d="m364.7 83.89h32.79v11.21h-19.05v23.38h13.62v11.09h-13.62v24.83h19.05v11.21h-32.79z"/><path d="m402.79 165.61 15.43-81.72h15.67l15.54 81.72h-14.1l-2.53-15h-14.58l-2.41 15zm17.21-25.92h11l-5.42-32.78h-.12z"/><path d="m454 144.51v-39.51c0-12.78 6-22.06 20.49-22.06 15.19 0 19.41 8.44 19.41 20.49v9.64h-12.53v-10.74c0-5.06-1.68-8-6.63-8s-7 3.5-7 8.44v43.87c0 4.94 2.05 8.44 7 8.44s6.63-3.13 6.63-8v-14.98h12.54v14.1c0 11.69-4.82 20.37-19.41 20.37s-20.5-9.4-20.5-22.06z"/><path d="m501.38 83.89h32.79v11.21h-19v23.38h13.62v11.09h-13.67v24.83h19v11.21h-32.74z"/><path d="m556.22 153.55-7 18.44h-7.71l1.69-19.52h13z"/><path d="m614.44 83.89v63.11c0 11.82-5.19 19.53-18.93 19.53-14.22 0-18.07-7.83-18.07-18.2v-16.23h13v16.51c0 4.1 1.45 6.51 5.06 6.51s5.19-2.41 5.19-6.63v-64.6z"/><path d="m662.65 83.89v61.83c0 12.65-5.43 20.85-19.41 20.85-14.46 0-20.49-8.2-20.49-20.85v-61.83h13.74v63.11c0 4.83 1.93 8.08 6.75 8.08s6.76-3.21 6.76-8.08v-63.11z"/><path d="m670.36 148v-11h12.78v11.21c0 4.58 2.05 7.23 6.75 7.23 4.34 0 6.27-2.89 6.27-7.23v-3.13c0-4.7-1.93-7.6-6.15-11.58l-8.08-8.07c-7.83-7.71-11.45-12.42-11.45-21.82v-2.77c0-10.12 5.91-18 19.29-18 13.74 0 19.16 6.75 19.16 18.56v6.63h-12.53v-7.03c0-4.7-2.17-7-6.51-7-3.86 0-6.51 2.17-6.51 6.75v1.69c0 4.58 2.53 7.23 6.51 11.09l8.8 8.67c7.47 7.6 11.09 12.18 11.09 21.22v4c0 11.2-6 19.16-20 19.16s-19.42-7.84-19.42-18.58z"/><path d="m716 83.89h36.53v11.21h-11.29v70.51h-13.86v-70.51h-11.38z"/><path d="m759.56 83.89h13.74v81.72h-13.74z"/><path d="m781.85 144.51v-39.51c0-12.78 6-22.06 20.49-22.06 15.19 0 19.41 8.44 19.41 20.49v9.64h-12.54v-10.74c0-5.06-1.68-8-6.63-8s-7 3.5-7 8.44v43.87c0 4.94 2 8.44 7 8.44s6.63-3.13 6.63-8v-14.98h12.54v14.1c0 11.69-4.82 20.37-19.41 20.37s-20.49-9.4-20.49-22.06z"/><path d="m829.82 83.89h32.79v11.21h-19.05v23.38h13.62v11.09h-13.62v24.83h19.05v11.21h-32.79z"/><path d="m317.7 285.46 15.43-81.72h15.67l15.54 81.72h-14.1l-2.53-14.94h-14.58l-2.41 14.94zm17.24-25.91h11l-5.42-32.78h-.12z"/><path d="m382.78 234.12v51.34h-11.57v-81.72h13.5l14.83 46.89v-46.89h11.46v81.72h-12.06z"/><path d="m461.13 225.68v37.85c0 12.53-5.18 21.93-19.89 21.93h-21.24v-81.72h21.21c14.79 0 19.92 9.26 19.92 21.94zm-21.58 48.57c5.67 0 7.84-3.37 7.84-8.31v-42.79c0-4.82-2.17-8.2-7.84-8.2h-5.78v59.3z"/><path d="m483.31 267.87v-11h12.77v11.21c0 4.58 2.05 7.23 6.75 7.23 4.34 0 6.27-2.89 6.27-7.23v-3.08c0-4.7-1.93-7.59-6.15-11.57l-8.07-8.07c-7.84-7.72-11.45-12.42-11.45-21.82v-2.77c0-10.13 5.9-18 19.28-18 13.74 0 19.17 6.75 19.17 18.56v6.67h-12.54v-7.11c0-4.7-2.17-7-6.51-7-3.85 0-6.51 2.17-6.51 6.75v1.69c0 4.58 2.53 7.23 6.51 11.08l8.8 8.68c7.47 7.6 11.09 12.18 11.09 21.22v4c0 11.21-6 19.17-20 19.17s-19.41-7.89-19.41-18.61z"/><path d="m527.78 203.74h36.52v11.26h-11.3v70.51h-13.89v-70.51h-11.33z"/><path d="m585.64 248v37.48h-13.74v-81.74h20c13.86 0 18.93 6.87 18.93 18.32v10.49c0 8.8-3.14 14-11 15.79l13.17 37.12h-14.47zm0-33v25.43h4.58c4.7 0 6.74-2.41 6.74-6.74v-12.11c0-4.46-2-6.63-6.74-6.63z"/><path d="m619.5 264.37v-39.53c0-12.78 6.27-22.06 20.74-22.06s20.85 9.28 20.85 22.06v39.53c0 12.66-6.27 22.06-20.85 22.06s-20.74-9.43-20.74-22.06zm27.85 2.17v-43.87c0-4.94-2.17-8.44-7.11-8.44s-7 3.5-7 8.44v43.87c0 4.94 2.16 8.44 7 8.44s7.11-3.5 7.11-8.44z"/><path d="m681.7 234.12v51.34h-11.57v-81.72h13.5l14.82 46.89v-46.89h11.45v81.72h-12z"/><path d="m739.67 241.83h19.53v43.63h-9.89v-8.92c-1.8 6.15-5.66 9.89-13.13 9.89-11.81 0-17.24-9.4-17.24-22.06v-39.53c0-12.78 6.15-22.06 20.61-22.06 15.19 0 19.65 8.44 19.65 20.49v7.23h-12.54v-8.31c0-5.07-1.93-8-6.87-8s-7.11 3.5-7.11 8.44v43.87c0 4.94 2.05 8.44 6.75 8.44 4.46 0 6.75-2.53 6.75-7.84v-14.42h-6.51z"/><path d="m320 324.9h13.74v81.72h-13.74z"/><path d="m354.46 355.27v51.35h-11.57v-81.72h13.5l14.82 46.88v-46.88h11.46v81.72h-12.06z"/><path d="m391 389v-11h12.78v11.21c0 4.58 2.05 7.23 6.75 7.23 4.34 0 6.26-2.89 6.26-7.23v-3.13c0-4.7-1.92-7.6-6.14-11.57l-8.08-8.08c-7.83-7.71-11.45-12.41-11.45-21.82v-2.77c0-10.12 5.91-18 19.29-18 13.74 0 19.16 6.75 19.16 18.56v6.63h-12.57v-7.03c0-4.7-2.17-7-6.51-7-3.86 0-6.51 2.17-6.51 6.75v1.69c0 4.58 2.53 7.23 6.51 11.09l8.8 8.68c7.47 7.59 11.08 12.17 11.08 21.21v4c0 11.21-6 19.16-20 19.16s-19.37-7.83-19.37-18.58z"/><path d="m435.46 324.9h36.54v11.21h-11.35v70.51h-13.86v-70.51h-11.33z"/><path d="m479.57 324.9h13.74v81.72h-13.74z"/><path d="m500.9 324.9h36.52v11.21h-11.33v70.51h-13.86v-70.51h-11.33z"/><path d="m584.91 324.9v61.83c0 12.65-5.42 20.85-19.4 20.85-14.47 0-20.49-8.2-20.49-20.85v-61.83h13.74v63.15c0 4.83 1.93 8.08 6.75 8.08s6.75-3.25 6.75-8.08v-63.15z"/><path d="m592.39 324.9h36.52v11.21h-11.33v70.51h-13.86v-70.51h-11.33z"/><path d="m636.5 324.9h13.74v81.72h-13.74z"/><path d="m659.4 385.52v-39.52c0-12.78 6.27-22.06 20.73-22.06s20.87 9.27 20.87 22.06v39.53c0 12.66-6.27 22.06-20.85 22.06s-20.75-9.41-20.75-22.07zm27.84 2.17v-43.87c0-4.94-2.17-8.44-7.11-8.44s-7 3.5-7 8.44v43.87c0 4.94 2.17 8.44 7 8.44s7.11-3.5 7.11-8.44z"/><path d="m721.59 355.27v51.35h-11.59v-81.72h13.5l14.83 46.88v-46.88h11.47v81.72h-12.06z"/><path d="m758.11 389v-11h12.78v11.21c0 4.58 2.05 7.23 6.75 7.23 4.34 0 6.27-2.89 6.27-7.23v-3.13c0-4.7-1.93-7.6-6.15-11.57l-8.08-8.08c-7.83-7.71-11.45-12.41-11.45-21.82v-2.77c0-10.12 5.91-18 19.29-18 13.74 0 19.16 6.75 19.16 18.56v6.63h-12.53v-7.03c0-4.7-2.17-7-6.51-7-3.86 0-6.51 2.17-6.51 6.75v1.69c0 4.58 2.53 7.23 6.51 11.09l8.8 8.68c7.47 7.59 11.09 12.17 11.09 21.21v4c0 11.21-6 19.16-20 19.16s-19.42-7.83-19.42-18.58z"/></g></svg>